<svg xmlns="http://www.w3.org/2000/svg" viewBox="0 0 200 260">
  <!-- 証人(オリジナルの仮素材) -->
  <rect x="20" y="200" width="160" height="60" rx="4" fill="#4a3020"/>
  <rect x="20" y="196" width="160" height="10" rx="3" fill="#6b4528"/>
  <path d="M42 200 L54 142 Q100 114 146 142 L158 200 Z" fill="#3f5a4a"/>
  <path d="M86 140 L100 176 L114 140 Z" fill="#e9e4d6"/>
  <circle cx="100" cy="94" r="36" fill="#e8c29c"/>
  <path d="M64 96 Q60 52 100 52 Q140 52 136 96 Q128 70 100 68 Q72 70 64 96 Z" fill="#2e2e3a"/>
  <ellipse cx="86" cy="94" rx="5" ry="4" fill="#2b2b33"/>
  <ellipse cx="114" cy="94" rx="5" ry="4" fill="#2b2b33"/>
  <path d="M78 84 L94 86 M106 86 L122 84" stroke="#2b2b33" stroke-width="3" stroke-linecap="round"/>
  <path d="M92 114 Q100 110 108 114" stroke="#8a5a44" stroke-width="3" fill="none" stroke-linecap="round"/>
  <path d="M136 80 Q146 86 142 98" stroke="#9fd0ff" stroke-width="3" fill="none" stroke-linecap="round"/>
</svg>
